<svg xmlns="http://www.w3.org/2000/svg" viewBox="0 0 142.32 100"><defs><style>.cls-1{fill:#fff;}</style></defs><title>logo</title><g id="Capa_2" data-name="Capa 2"><g id="Capa_2-2" data-name="Capa 2"><g id="Capa_1-2" data-name="Capa 1"><path class="cls-1" d="M133.32,38.71c-.65-6.47-5.25-14.32-12.76-16.31-6.76-1.79-13.66,1.6-18.64,6.25-.09-1.24-.18-2.6-.27-4.13,0-.41-10,1.48-9.75,2.67l.14.86c2.12,14.65,2,13.53,3.73,28.22.67,5.75,1.42,11.49,2.33,17.21-.64.22-1.29.43-1.95.61-1.78.49-.6,3.51-.11,4.36.61,1.08,1.84,2.56,3.35,2.6q.72,3.9,1.58,7.79.6,2.73,1.28,5.46c.16.64.37,1.3.58,2,.17,1.35.74,3.31,1.43,3.74l8.9-3.3a3.66,3.66,0,0,0,0-.9,29.62,29.62,0,0,0-1-3.49q-.69-2.72-1.29-5.45c-.75-3.28-1.39-6.58-2-9.88a64.29,64.29,0,0,0,6.69-4.9,57.85,57.85,0,0,0,13.16-15.29c3.29-5.64,5.22-11.71,4.58-18.08m-10.09,13a58.73,58.73,0,0,1-13.49,15c-.73.59-1.48,1.16-2.26,1.73-.74-4.94-1.37-9.88-2-14.82-.9-7.63-1.69-11.2-2.35-14.93a25.54,25.54,0,0,1,13.5-9.25c2.64-.71,6.1-.41,7.93,1a7.1,7.1,0,0,1,1.46,1.5.86.86,0,0,0,.07.1l.11.17c.18.28.34.58.5.87l.06.1a.58.58,0,0,0,.06.15c.13.3.24.61.35.92,0,.05.13.42.17.56.09.35.16.7.22,1,.88,4.82-1.45,11-4.37,15.8"/><path class="cls-1" d="M23.45,88.64l2.11-4a.1.1,0,0,1,.11-.07h.13a.11.11,0,0,1,.11.06l2,3.77c0,.07,0,.14-.11.14H27.3a.21.21,0,0,1-.2-.12l-.35-.68H24.64l-.35.68a.22.22,0,0,1-.21.12h-.52c-.1,0-.15-.08-.11-.15M26.37,87l-.67-1.59h0L25,87Z"/><path class="cls-1" d="M29.88,84.34l.12-.56h.11s.1.49.12.53L31.72,87h0l1.48-2.64a4.8,4.8,0,0,0,.12-.53h.11l.12.56.8,4c0,.09-.12.21-.12.21h-.61a.14.14,0,0,1-.13-.09l-.41-2.29h0L31.9,88.47a.13.13,0,0,1-.12.07h-.12a.11.11,0,0,1-.11-.07l-1.19-2.31h0l-.4,2.29s-.06.09-.12.09H29.2s-.14-.12-.12-.21Z"/><path class="cls-1" d="M36.43,84.68a.12.12,0,0,1,.13-.11H38c.77,0,1.36.45,1.36,1.05a1.07,1.07,0,0,1-.71.9,1.07,1.07,0,0,1,.84.93c0,.63-.62,1.09-1.41,1.09H36.56a.12.12,0,0,1-.13-.12Zm1.3,1.48a.71.71,0,0,0,.58-.64c0-.3-.24-.5-.58-.16h-.4v.8Zm.09,1.58a.53.53,0,0,0,.61-.51.41.41,0,0,0-.69-.28h-.41v.79Z"/><path class="cls-1" d="M41,84.68a.12.12,0,0,1,.13-.11h.64a.12.12,0,0,1,.13.11v3.75a.12.12,0,0,1-.13.11h-.64a.12.12,0,0,1-.13-.11Z"/><path class="cls-1" d="M44.56,84.42c-.47-.06-.34.15-.34.15H47s.12-.21.29-.15v.49c-.17.06-.22.11-.29.45H45.46v.8h1.19c.06-.16.13-.11-.28,0v.49c.41.07.28.35.28.35H45.46v.79H47a3.15,3.15,0,0,1,.29.13v.49a1.65,1.65,0,0,0-.29.18H44.22c-.07-.07-.13-.12.34-.18Z"/><path class="cls-1" d="M49.08,84.67a.12.12,0,0,1,.13-.1h.13L51.89,87h-.1V84.68a.12.12,0,0,1,.13-.11h.64a.12.12,0,0,1,.13.11v3.74s.16.11.09.12h-.16l-2.83-2.38H50v2.28a.12.12,0,0,1-.13.1h-.64a.12.12,0,0,1-.13-.1Z"/><path class="cls-1" d="M55.4,85.36h-.83s-.13-.39-.07-.45v-.49c-.06-.06,0-.11.07.15h3c.08-.26.13-.21.58-.15v.49a.72.72,0,0,0-.58.45H56.3v3.08a.12.12,0,0,1-.13.1h-.64a.12.12,0,0,1-.13-.1V85.36Z"/><path class="cls-1" d="M58.33,88.64l2.1-4a.11.11,0,0,1,.11-.07h.14a.12.12,0,0,1,.11.06l2,3.77c0,.07,0,.14-.11.14h-.46a.21.21,0,0,1-.21-.12l-.34-.68H59.51l-.35.68a.2.2,0,0,1-.2.12h-.52c-.1,0-.16-.08-.11-.15M61.25,87l-.68-1.59h0L59.89,87Z"/><path class="cls-1" d="M66.33,84.25A2.5,2.5,0,0,1,68,84.8.1.1,0,0,1,68,85l-.41.37a.12.12,0,0,1-.17,0,1.71,1.71,0,0,0-1-.35,1.39,1.39,0,1,0,0,2.76,1.77,1.77,0,0,0,1-.34.15.15,0,0,1,.17,0l.42.38A.12.12,0,0,1,68,88a2.5,2.5,0,0,1-1.64.57,2.16,2.16,0,1,1,0-4.28"/><path class="cls-1" d="M69.85,84.68c0-.06.07-.11.14-.11h.64a.12.12,0,0,1,.13.11v3.75a.12.12,0,0,1-.13.11H70c-.07,0-.14-.05-.14-.11Z"/><path class="cls-1" d="M74.73,84.25a2.16,2.16,0,1,1,0,4.28,2.16,2.16,0,1,1,0-4.28m0,3.51a1.47,1.47,0,0,0,1.56-1.36,1.56,1.56,0,0,0-3.1,0,1.46,1.46,0,0,0,1.54,1.36"/><path class="cls-1" d="M78.89,84.67a.12.12,0,0,1,.13-.1h.31L81.88,87H81.6V84.68a.12.12,0,0,1,.13-.11h.64a.12.12,0,0,1,.13.11v3.74s.33.11.27.12h-.16l-2.83-2.38h0v2.28a.12.12,0,0,1-.13.1H79a.12.12,0,0,1-.13-.1Z"/><path class="cls-1" d="M85.21,84.42c-.25-.06-.12.15-.12.15h2.75s.13-.21.08-.15v.49c0,.06,0,.11-.08.45H86.12v.8h1.39c.07-.16.13-.11.41,0v.49a.69.69,0,0,0-.41.35H86.12v.79h1.72c.08,0,.08.13.08.13v.49a.26.26,0,0,1-.08.18H85.09c-.08-.07-.13-.12.12-.18Z"/><path class="cls-1" d="M89.5,87.89l.24-.37a.18.18,0,0,1,.23,0,2.4,2.4,0,0,0,1,.37c.35,0,.61-.21.61-.46s-.29-.51-.86-.72-1.27-.58-1.27-1.28c0-.53.44-1.14,1.52-1.14a2.55,2.55,0,0,1,1.35.4.12.12,0,0,1,0,.19l-.25.34a.19.19,0,0,1-.24.07,2.4,2.4,0,0,0-.94-.32c-.39,0-.6.22-.6.41s.25.47.8.67,1.42.58,1.42,1.34S92,88.53,91,88.53a2.4,2.4,0,0,1-1.49-.46c-.06-.06-.09-.09,0-.18"/><path class="cls-1" d="M142,86.32c-4.73-2-14.12-.28-15.26,4.9a10,10,0,0,0-3.23,1.59c.5-1.18,1-2.35,1.56-3.51a.74.74,0,0,0,.66-.48c3.37-1.19,5.79-3,7-6.09a8.53,8.53,0,0,0,.57-4,3.09,3.09,0,0,0-1.74-2.62c-.31-.28-.93-.28-1,.21v0c-5.53.82-8.11,7.76-6.3,12.07-.55,1.1-1,2.21-1.52,3.33a9.89,9.89,0,0,0-.72-2.15c1.81-1.61,1.12-4.64.52-6.57a7.64,7.64,0,0,0-2.26-3.43,11,11,0,0,0-3.59-2.37.61.61,0,0,0-.3-.22.65.65,0,0,0-.73-.37c-1.31.2-1.53,1.92-1.56,2.84a12.35,12.35,0,0,0,1.07,4.87,11.92,11.92,0,0,0,2.61,4.16c.56.56,1.94,1.44,2.83,1a.63.63,0,0,0,.26.43,8.18,8.18,0,0,1,.85,3.08c.05,1.69-1.23,3.09-1.45,4.74a.23.23,0,0,0,.13.24.14.14,0,0,1,0,.06c-.08.38.56.67.76.28.64-1.25,1.2-2.53,1.74-3.82a.33.33,0,0,0,.27-.1,7.78,7.78,0,0,1,3.39-1.74,5.37,5.37,0,0,0,3.27,1.3,16.79,16.79,0,0,0,5.34-.32A10.44,10.44,0,0,0,140,91.25c1-.88,2.23-2.54,2-3.92.38-.24.52-.79,0-1m-10.54-3.9c-.9,2.44-2.88,4-5.42,5,.13-.23.26-.46.4-.69,1.85-3.06,4.12-6,5.08-9.39l.08.12a3.55,3.55,0,0,1,.45,1.68,8,8,0,0,1-.59,3.27m-5.67-.68a8.26,8.26,0,0,1,4.46-4.48c-1,3.29-3.21,6.18-5,9.18a9.06,9.06,0,0,1-.13-1.18,9.33,9.33,0,0,1,.67-3.52M121,82.87c.47,1.27,1.31,4,.36,5.43-1.48-3.23-3.32-6.26-4.35-9.6a14.41,14.41,0,0,1,1.73,1.21,6.89,6.89,0,0,1,2.26,3m-1.46,5.58a3.61,3.61,0,0,1-1.25-1,11.28,11.28,0,0,1-2.11-3.67c-.59-1.52-1.43-3.85-.69-5.48.57,3.23,2.61,6.36,4.13,9.27.15.31.32.62.49,1a1.65,1.65,0,0,1-.57-.11m13.6-1.08a14.08,14.08,0,0,1,6.62-.43,85.58,85.58,0,0,0-9.47,3.18c-.75.27-1.59.5-2.44.75,1-1.78,3.23-2.89,5.29-3.5m5.7,3.3a9.24,9.24,0,0,1-4.14,1.78,16.91,16.91,0,0,1-4.26.32,5,5,0,0,1-2.38-.65c1.12-.34,2.24-.69,3.34-1.08A89.86,89.86,0,0,1,140.78,88a3.63,3.63,0,0,1-.26.74,6.54,6.54,0,0,1-1.67,1.94"/><path class="cls-1" d="M92.8,72.56a2,2,0,0,0-.19-.5c.1.25-.21-.68-.22-.71-.23-.81-.39-1.63-.55-2.45a47.55,47.55,0,0,1-.64-5c-.31-3.71-.27-7.44-.27-11.16,0-7.7.31-15.54-1.09-23.17-.48-2.61-5.71-7-8.15-3.65-.88,1.21-2.57,4.83-3.3,6.09,0-.68.86-3.74.84-4.42a5.88,5.88,0,0,0-2.84-4.63c-1.46-1-4.33-1.86-5.38.08A196.86,196.86,0,0,0,60,46.89c-.14-1.44-.29-2.88-.46-4.31C59,37.5,58.31,32,56,27.24c-.11-.86-6.56,3.08-6.56,3.08.31,1.15.57,2.31.8,3.47.16.78.3,1.57.43,2.36a35.05,35.05,0,0,1-1.77,5.12l0,.19A119.17,119.17,0,0,1,36.63,64.71c-1.37,2-1.75,3.06-3.57,4.78a13.47,13.47,0,0,1-1.31.93,21.68,21.68,0,0,1-2.7-9c-.75-11.32.45-20.48,2.78-32,9.11-1.48,17.47-4.9,24.5-7.31.25-.09-4.83-5-5.28-4.77-1.9,1-10.26,3.62-17.94,5.45A87.23,87.23,0,0,0,34.62,1.91c0-.73.07-1.61-.29-1.61-.94,0-6.58-.32-9.47-.3l0,.84c.55,8.84-.58,16.45-2,23.87A159.29,159.29,0,0,1,.53,26.45s-.68-.75-.5.42c.23,1.48,1.68,4.87,3.88,4.86a172.44,172.44,0,0,0,17.75-1c-1.64,8-3.21,12.22-3,21.82A51,51,0,0,0,21,66.93a16.84,16.84,0,0,0,4,7.12c4.07,4,9.45,3.64,14.08.11a21.16,21.16,0,0,0,5.64-6.58c1.92-3.38,3.93-6.94,5.72-10.37.64-1.22,1.25-2.46,1.85-3.72.13,2.69.22,5.41.29,8.23.06,2.43.08,5.47.12,9.3a5.43,5.43,0,0,0,1.69,3.6c3,3.3,5.68,1.59,5.68,1.59.28-.38,1-.59,1.06-1.11a146.23,146.23,0,0,1,8.32-26.59c-.73,6.71-1.84,15.54-2.37,23.11a5.2,5.2,0,0,0,1.31,4.26,7.63,7.63,0,0,0,2.83,1.88,4.9,4.9,0,0,0,3.16.32c.1,0,1.32-.71,1.47-1.38s.28-1.43.34-1.78c1.36-8,2.27-13.63,4.18-21.57.61-2.54,1.3-5.09,2.14-7.61,0,1.62,0,3.24,0,4.84,0,7.31-.1,15,2.65,22a6.52,6.52,0,0,0,1.63,2.18,7,7,0,0,0,3.93.34,3.7,3.7,0,0,0,2.1-2.53"/></g></g></g></svg>