<svg xmlns="http://www.w3.org/2000/svg" viewBox="0 0 637.77 65.7"><defs><style>.cls-1{fill:#e31f21;}</style></defs><title>corporativos-title</title><g id="Capa_2" data-name="Capa 2"><g id="Capa_1-2" data-name="Capa 1"><path class="cls-1" d="M27.09,23.48c0-9-1-12.9-5.85-12.9-5.76,0-6.28,5.5-6.28,21.58,0,18.23.61,23,6.63,23,5.33,0,5.93-6.11,6-15.66H41.54v2.15c0,13.25-3.7,23.14-21.59,23.14C1.46,64.76,0,50.91,0,32.42,0,16.68.86,1,21.33,1,34.06,1,41,6.45,41,20.9v2.58Z"/><path class="cls-1" d="M87.72,0c14.7,0,42,1,42,32.85s-27.27,32.85-42,32.85-42-1-42-32.85S73,0,87.72,0Zm0,50.22c9.89,0,16.17-4.9,16.17-17.37S97.61,15.48,87.72,15.48s-16.17,4.9-16.17,17.37S77.83,50.22,87.72,50.22Z"/><path class="cls-1" d="M136.82,2.15h24.26c12.29,0,16.51,7.57,16.51,16,0,8.94-3.61,13.33-10.32,15v.17c9.2,1.29,9.72,7,9.89,15.31.26,12.12.69,13.33,2.75,14.19v.77H164.34c-1.11-2.06-1.54-5.5-1.54-12.47,0-10.66-1.47-12.9-6-12.9h-5.51V63.55H136.82ZM151.27,28h4.47c5.85,0,7.4-4.39,7.4-8,0-4.65-1.72-7.74-7.48-7.74h-4.39Z"/><path class="cls-1" d="M186.19,2.15h22.36c15.22,0,18.14,11,18.14,18.66,0,11-5.24,18.75-19.69,18.75h-6.36v24H186.19ZM200.64,28.9h4c5.76,0,7.14-3.62,7.14-7.74,0-4.73-1.55-8.35-7.4-8.35h-3.69Z"/><path class="cls-1" d="M254.21,64.76c-19,0-21.58-12.39-21.58-31.91S235.21,1,254.21,1c20.47,0,21.59,14.87,21.59,31.9S274.68,64.76,254.21,64.76Zm-.08-9.63c5.85,0,6.71-5.42,6.71-22.28s-.86-22.27-6.71-22.27c-5.68,0-6.54,5.42-6.54,22.27S248.45,55.13,254.13,55.13Z"/><path class="cls-1" d="M284.83,2.15h51.08c7,0,11.18.6,14.54,2.24,4.55,2.23,8.34,8.17,8.34,14.87,0,5.77-2.41,12-9.46,14v.17c3.61,1,6.53,4.13,7,9.46l1,13.42a13.67,13.67,0,0,0,3,7.22H333.85c-.86-1.8-.86-4.47-1.29-11.61-.26-4.56-1.81-7.31-6.28-7.31h-17.2V63.55H284.83Zm24.25,27h17.2c4.73,0,6.71-1.89,6.71-5.76,0-4.64-3-5.76-7.05-5.76H309.08Z"/><path class="cls-1" d="M377.45,2.15h18.06l15.31,61.4h-15l-2.23-11.69H378.91l-2.15,11.69h-15Zm8.77,11.18h-.17L381,40.68h10.49Z"/><path class="cls-1" d="M419.68,13.85h-12.9V2.15H447v11.7h-12.9v49.7H419.68Z"/><path class="cls-1" d="M452.27,2.15h14.45v61.4H452.27Z"/><path class="cls-1" d="M467.83,2.15H494.5L508,41.54h.17l13.5-39.39h26.66l-27.52,61.4H495.35Z"/><path class="cls-1" d="M569.4,64.76c-19,0-21.59-12.39-21.59-31.91S550.39,1,569.4,1C589.87,1,591,15.82,591,32.85S589.87,64.76,569.4,64.76Zm-.09-9.63c5.85,0,6.71-5.42,6.71-22.28s-.86-22.27-6.71-22.27c-5.67,0-6.53,5.42-6.53,22.27S563.64,55.13,569.31,55.13Z"/><path class="cls-1" d="M610.51,44.8V47c0,4.64,1.29,8.17,6.28,8.17s6.53-3.79,6.53-7.31c0-13.25-26.4-5.85-26.4-28.81C596.92,9.2,602.17,1,617,1c14.45,0,19.61,7.31,19.61,16.77v1.46H622.72c0-2.93-.34-5.08-1.2-6.45s-2.24-2.15-4.39-2.15c-3.61,0-5.76,2.15-5.76,6.62,0,12.81,26.4,6.36,26.4,28,0,13.93-7.74,19.52-21,19.52-10.5,0-20.21-3.18-20.21-16v-4Z"/></g></g></svg>