<svg id="Capa_1" data-name="Capa 1" xmlns="http://www.w3.org/2000/svg" viewBox="0 0 614.55 65.7"><defs><style>.cls-1{fill:#e31f21;}</style></defs><title>editoriales-title</title><path class="cls-1" d="M84,114.22h65.28v15h-41v8.26h38.09v15H108.25v8.26h41v15H84Z" transform="translate(-83.99 -112.07)"/><path class="cls-1" d="M155.8,114.22h21.42c14.27,0,20.38,7.4,20.38,28.72,0,22.28-2.84,32.68-21.85,32.68H155.8ZM170.25,165h3.87c6.71,0,9-2.67,9-21.07,0-15-1.2-19-8.86-19h-4Z" transform="translate(-83.99 -112.07)"/><path class="cls-1" d="M205.42,114.22h14.45v61.4H205.42Z" transform="translate(-83.99 -112.07)"/><path class="cls-1" d="M238,125.92h-12.9v-11.7h40.25v11.7h-12.9v49.7H238Z" transform="translate(-83.99 -112.07)"/><path class="cls-1" d="M310.52,112.07c14.7,0,42,1,42,32.85s-27.26,32.85-42,32.85-42-1-42-32.85S295.81,112.07,310.52,112.07Zm0,50.22c9.89,0,16.16-4.9,16.16-17.37s-6.27-17.37-16.16-17.37-16.17,4.9-16.17,17.37S300.63,162.29,310.52,162.29Z" transform="translate(-83.99 -112.07)"/><path class="cls-1" d="M359.62,114.22h24.25c12.3,0,16.52,7.57,16.52,16,0,8.94-3.62,13.33-10.32,15v.17c9.2,1.29,9.71,7.05,9.89,15.31.25,12.13.68,13.33,2.75,14.19v.77H387.14c-1.12-2.06-1.55-5.5-1.55-12.47,0-10.66-1.46-12.9-6-12.9h-5.5v25.37H359.62Zm14.45,25.89h4.47c5.85,0,7.4-4.39,7.4-8,0-4.65-1.72-7.74-7.48-7.74h-4.39Z" transform="translate(-83.99 -112.07)"/><path class="cls-1" d="M409.24,114.22h14.45v61.4H409.24Z" transform="translate(-83.99 -112.07)"/><path class="cls-1" d="M451.73,114.22h29.75l26.15,61.4h-25.8l-2.58-7.05H454l-2.58,7.05h-25.8Zm15,18.58h-.17l-7.23,20.81h14.62Z" transform="translate(-83.99 -112.07)"/><path class="cls-1" d="M509.26,114.22h14.45v49.71h20.9v11.69H509.26Z" transform="translate(-83.99 -112.07)"/><path class="cls-1" d="M550.54,114.22h65.27v15h-41v8.26h38.1v15h-38.1v8.26h41v15H550.54Z" transform="translate(-83.99 -112.07)"/><path class="cls-1" d="M637.57,149.57c-11.87-1.81-16.77-8.69-16.77-17.29,0-15.91,15.57-20.21,35.52-20.21,27.35,0,38.61,7.14,39.47,20.12H667.58c0-2.49-1.46-4-3.69-4.9a19.59,19.59,0,0,0-7.57-1.29c-7.23,0-9.72,1.81-9.72,4.39,0,1.72.77,2.84,3.18,3.18l29,4.3c12.22,1.81,19.78,7.48,19.78,17.89,0,15-12.21,22-39.47,22-18.66,0-39-2.58-39.13-20.64h29.24a4.75,4.75,0,0,0,2.58,4.39c1.81.86,4.47,1.29,8.26,1.29,7.56,0,9.63-2.06,9.63-5,0-1.8-1.12-3.61-4.39-4.13Z" transform="translate(-83.99 -112.07)"/></svg>