<svg id="Capa_1" data-name="Capa 1" xmlns="http://www.w3.org/2000/svg" viewBox="0 0 594.42 63.81"><defs><style>.cls-1{fill:#e31f21;}</style></defs><title>empresariales-title</title><path class="cls-1" d="M94.36,114.22h35.51v11.7H108.8v12.29h19.78v11.7H108.8v14h22v11.69H94.36Z" transform="translate(-94.36 -113.02)"/><path class="cls-1" d="M138.82,114.22H173L183,149.91h.17l10.07-35.69H227.4v61.4h-22V131.76h-.17l-12.9,43.86h-18.4L161,131.76h-.18v43.86h-22Z" transform="translate(-94.36 -113.02)"/><path class="cls-1" d="M237.8,114.22h22.36c15.23,0,18.15,11,18.15,18.66,0,11-5.25,18.75-19.69,18.75h-6.37v24H237.8ZM252.25,141h4c5.76,0,7.14-3.62,7.14-7.74,0-4.73-1.55-8.35-7.4-8.35h-3.7Z" transform="translate(-94.36 -113.02)"/><path class="cls-1" d="M285.62,114.22h24.25c12.3,0,16.51,7.57,16.51,16,0,8.94-3.61,13.33-10.32,15v.17c9.21,1.29,9.72,7.05,9.9,15.31.25,12.13.68,13.33,2.75,14.19v.77H313.14c-1.12-2.06-1.55-5.5-1.55-12.47,0-10.66-1.46-12.9-6-12.9h-5.5v25.37H285.62Zm14.45,25.89h4.47c5.85,0,7.4-4.39,7.4-8,0-4.65-1.72-7.74-7.48-7.74h-4.39Z" transform="translate(-94.36 -113.02)"/><path class="cls-1" d="M336.45,114.22h65.27v15h-41v8.26h38.1v15H360.7v8.26h41v15H336.45Z" transform="translate(-94.36 -113.02)"/><path class="cls-1" d="M420.21,156.88V159c0,4.64,1.29,8.17,6.28,8.17s6.53-3.79,6.53-7.31c0-13.25-26.4-5.85-26.4-28.81,0-9.81,5.25-18.06,20.13-18.06,14.44,0,19.6,7.31,19.6,16.77v1.46H432.42c0-2.93-.34-5.08-1.2-6.45s-2.24-2.15-4.39-2.15c-3.61,0-5.76,2.15-5.76,6.62,0,12.81,26.4,6.36,26.4,28,0,13.93-7.74,19.52-21,19.52-10.49,0-20.21-3.18-20.21-16v-4Z" transform="translate(-94.36 -113.02)"/><path class="cls-1" d="M465.79,114.22h18.06l15.31,61.4h-15L482,163.93H467.25l-2.15,11.69h-15Zm8.77,11.18h-.17l-5.08,27.35h10.5Z" transform="translate(-94.36 -113.02)"/><path class="cls-1" d="M503.8,114.22h24.25c12.3,0,16.51,7.57,16.51,16,0,8.94-3.61,13.33-10.32,15v.17c9.2,1.29,9.72,7.05,9.89,15.31.26,12.13.69,13.33,2.75,14.19v.77H531.32c-1.12-2.06-1.55-5.5-1.55-12.47,0-10.66-1.46-12.9-6-12.9h-5.5v25.37H503.8Zm14.45,25.89h4.47c5.85,0,7.39-4.39,7.39-8,0-4.65-1.72-7.74-7.48-7.74h-4.38Z" transform="translate(-94.36 -113.02)"/><path class="cls-1" d="M553.42,114.22h14.45v61.4H553.42Z" transform="translate(-94.36 -113.02)"/><path class="cls-1" d="M595.9,114.22h29.76l26.14,61.4H626l-2.58-7.05H598.14l-2.58,7.05h-25.8Zm15,18.58h-.17l-7.23,20.81h14.62Z" transform="translate(-94.36 -113.02)"/><path class="cls-1" d="M653.44,114.22h14.44v49.71h20.9v11.69H653.44Z" transform="translate(-94.36 -113.02)"/></svg>