<svg xmlns="http://www.w3.org/2000/svg" viewBox="0 0 866.96 262.47"><defs><style>.cls-1{fill:#fff;}</style></defs><title>rock</title><g id="Capa_2" data-name="Capa 2"><g id="Capa_1-2" data-name="Capa 1"><path class="cls-1" d="M141.41,222.42c-2.57,9.37-5.23,18.71-7.67,28.11-3.06,11.82-3,11.89-15.42,11.81-9.52-.06-8.15,1-8.84-8.07q-3.23-42.53-6.52-85.05c-.67-8.57-1.59-17.13-2.47-26.49,6.73,0,12.68-.15,18.6.15.91.05,2.37,2.13,2.48,3.37,1.38,16.07,2.56,32.16,3.78,48.25.33,4.31.56,8.63,1,12.92a31.5,31.5,0,0,0,1.31,4.86l1.5,0a29.32,29.32,0,0,0,1.11-3.8c3-19.88,5.9-39.78,9-59.65.32-2.07,1.57-4,2.38-6,.93,1.89,2.37,3.7,2.69,5.69,3.08,19.18,6,38.4,8.93,57.6.31,2,.85,4,1.28,6l1.53.11a17.56,17.56,0,0,0,1.07-3.57q2.56-30.57,5-61.14c.26-3.38,1.15-5.18,5-5,5.11.3,10.26.08,16.06.08-.41,5.28-.79,10-1.15,14.72q-2.45,32.09-4.89,64.17c-1,12.43-1.91,24.86-3.16,37.27-.12,1.26-2.23,2.35-3.46,3.46-.19.17-.65,0-1,0-16.57.44-16.52.43-20.59-15.6-2.07-8.15-4.34-16.25-6.51-24.37Z"/><path class="cls-1" d="M602.09,142.72c6,0,11.66-.23,17.26.18,1.36.1,3.2,2.11,3.73,3.62,5.41,15.7,10.61,31.48,15.86,47.23a4.94,4.94,0,0,0,1.5,2.39c.12-1.32.34-2.63.34-3.94,0-14.82.13-29.64-.06-44.46-.05-3.9,1.1-5.35,5.09-5.12,5.09.29,10.22.07,15.89.07v5.6c0,36.13-.09,72.26.11,108.39,0,4.75-1.52,5.81-5.93,5.77-15-.14-15,0-19.68-14.44-4.38-13.4-8.89-26.77-14.25-40.08V262H602.09Z"/><path class="cls-1" d="M51.28,57.14c.14.3.19.72.43.88,8.06,5.4,9.06,13.19,8.62,22.18-.62,12.77-.16,25.6-.16,38.88H39.5V67.74H21.1v51.4H.36C.27,117.58.1,116,.1,114.39.09,78.25.16,42.12,0,6,0,1.47,1.16-.06,5.85.05c13.31.3,26.64.09,40,.12,6.12,0,14.32,8.3,14.34,14.44,0,8.33-.33,16.67.13,25,.31,5.48-1.12,9.72-5.47,13-1.47,1.1-3,2.07-4.54,3.1ZM39.39,46.2V35c0-14.61,0-14.61-14.5-13.83-.5,0-1.16-.15-1.46.1-.86.75-2.23,1.64-2.25,2.51-.18,7.39-.1,14.79-.1,22.44Z"/><path class="cls-1" d="M330.29,142.68c13.61,0,27,.79,40.15-.28,8.81-.71,13.5,3.92,18.28,9.44.94,1.08,1.16,3.06,1.16,4.62q.11,45.91,0,91.84c0,4.37-8.11,13.9-12.34,13.95-15.61.17-31.23.07-47.29.07Zm39.09,99.06v-24c0-16.48.06-32.95-.09-49.43,0-1.6-1.28-4.5-2.13-4.56-5.54-.42-11.13-.22-16.65-.22v78.16Z"/><path class="cls-1" d="M434.22,142.69c13.48,0,26.66.78,39.69-.28,8.77-.71,13.55,3.83,18.37,9.34a7.46,7.46,0,0,1,1.38,4.58q.12,46.17,0,92.34c0,4-8.32,13.56-12.19,13.6-15.62.16-31.24.07-47.29.07Zm38.5,99V163.92H454.25v77.77Z"/><path class="cls-1" d="M103.8,60c0-15.14,0-30.27,0-45.41C103.82,8.38,112,.19,118.23.17c10.48,0,21-.06,31.44,0,5.7,0,14.2,8.47,14.2,14.15q.06,45.66,0,91.31c0,6-8.14,13.88-14.23,13.9q-16,0-31.93,0c-5.75,0-13.86-8-13.88-13.69C103.77,90.56,103.8,75.26,103.8,60Zm38.93,39V21.14c-4.46,0-8.61.25-12.71-.07s-5.35,1.29-5.32,5.38c.17,22.64.07,45.27.09,67.91,0,1.45.19,2.91.31,4.63Z"/><path class="cls-1" d="M857.42,56.67c.47.87.56,1.27.8,1.43,7.92,5.41,9.13,13.09,8.65,22.1-.66,12.78-.16,25.62-.16,38.9H846.26V67.75H827.34v51.42h-20.5c-.1-1.8-.27-3.42-.27-5,0-36.13.06-72.27-.1-108.4,0-4.37,1.15-5.76,5.59-5.67,13.31.27,26.64.07,40,.11,6.58,0,14.67,8.11,14.68,14.62,0,8.5-.23,17,.09,25.48C867,45.11,866,49,861.94,52,860.24,53.2,859,55,857.42,56.67ZM846.23,46.24c0-7.74.14-14.85-.15-21.94,0-1.09-2-2.89-3.18-3a81.73,81.73,0,0,0-12.42,0c-1.09.07-3,1.39-3,2.18-.23,7.54-.14,15.08-.14,22.78Z"/><path class="cls-1" d="M659.16,60.34q0,22.46,0,44.92c0,6.56-7.76,14.28-14.27,14.29q-16,0-32,0c-5.55,0-13.92-8.25-13.93-13.8q-.06-45.67,0-91.35C599,8.71,607.48.2,613.17.17q16-.08,31.94,0c5.79,0,14,8.4,14,14.25Q659.2,37.38,659.16,60.34ZM638.09,99.16V21.62H620.24V99.16Z"/><path class="cls-1" d="M744.6,163.74H726.14v77.82h18V213.93c-.22-.18-.45-.51-.72-.55-8.57-1.12-8.57-1.12-8.58-10.32,0-11,0-11,11.15-11,5.16,0,10.32.11,15.48,0,3.07-.09,4.06,1.17,4,4.13-.09,17.65,0,35.31-.09,53,0,4.7-8.87,13.2-13.61,13.23q-16.49.07-33,0c-5.18,0-13.25-8.19-13.26-13.38q-.06-46.47,0-92.93c0-5,8.26-13.25,13.35-13.29q16.48-.1,33,0c4.45,0,13.4,8.45,13.51,12.85.18,7.15,0,14.32.09,21.48,0,2.81-1.16,3.84-3.9,3.77-4.49-.12-9,.22-13.47-.2a5,5,0,0,1-3.38-3.4C744.33,173,744.6,168.62,744.6,163.74Z"/><path class="cls-1" d="M723.51,99h18.71V93.22c0-29,.11-57.94-.08-86.91,0-4.65,1-6.81,6-6.21,4.72.55,11-1.07,13.78,1.41,2.4,2.16,1,8.73,1,13.36q.08,45,0,89.91c0,7.09-7.73,14.75-14.87,14.76q-15.74,0-31.47,0c-5.82,0-13.77-8-13.78-13.85,0-33.46,0-66.93-.09-100.4,0-3.82,1-5.54,5-5.2a62.16,62.16,0,0,0,10.48,0c4.22-.37,5.39,1.31,5.37,5.4-.15,28-.08,56-.08,83.92Z"/><path class="cls-1" d="M332.74,49.94q5-15,10.09-30c1.91-5.66,3.77-11.35,5.88-16.95.43-1.13,1.85-2.64,2.86-2.68C357.85.1,364.14.22,371.22.22c-3,9-5.65,17.34-8.42,25.64-3.25,9.76-6.4,19.56-9.92,29.22-1.56,4.3-.59,8.05.78,12,5.52,16.17,10.9,32.4,16.3,48.61.36,1.07.52,2.21.87,3.78-6.61,0-12.92.14-19.21-.14-1.08,0-2.62-1.71-3.05-2.94-4.76-13.63-9.35-27.32-14-41a11.32,11.32,0,0,0-2.82-4.91v48.66H311.24c-.08-1.67-.24-3.42-.24-5.17,0-36.11.06-72.22-.11-108.33,0-4.39,1.17-5.94,5.59-5.61,4.77.35,9.58.08,15,.08V49.77Z"/><path class="cls-1" d="M228,99h18.81V78.72h20.47c0,7.16-.74,14.5.2,21.63,1.08,8.2-2.88,13.19-8.5,17.69a7,7,0,0,1-4,1.43q-17.49.18-35,0c-4.41,0-12.72-8.85-12.72-13.45q-.06-46.21,0-92.42C207.25,9.1,216.1.22,220.65.19q16.72-.13,33.47,0c4,0,13,8.25,13.06,12.08.16,8.31.05,16.62.05,25.45H246.91V21.19c-5.79,0-11.07-.16-16.32.15-.94.06-2.51,2.06-2.52,3.18C227.93,49.15,228,73.78,228,99Z"/><path class="cls-1" d="M285.62,163.51c-11.52,0-22.66.23-33.77-.11-4.55-.14-5.73,1.38-5.5,5.68.33,6.43.08,12.9.08,20,5.69,0,10.79.14,15.87-.05,3.09-.12,4.12,1.09,4,4.07-.17,4.32-.13,8.66,0,13,.07,2.57-.92,3.6-3.51,3.52-4.16-.12-8.32.07-12.48-.07-2.67-.08-4,.72-3.93,3.65.13,8.32.15,16.64,0,25-.06,3.24,1.43,3.88,4.25,3.85,9.82-.11,19.64,0,29.45,0h5.67v19.87H226.36V143h59.26Z"/><path class="cls-1" d="M527.37,25.5c2.68-7.86,5.21-14.5,7.15-21.31C535.45.93,537.06,0,540.17.11c5.45.16,10.9,0,17.23,0C555.59,6,554.14,11.05,552.49,16c-4.31,12.91-8.8,25.76-13,38.71a32.9,32.9,0,0,0-1.61,9.74c-.16,16.29-.08,32.59-.08,48.89v5.8H517.4c-.09-2-.24-3.77-.25-5.56,0-12.31-.67-24.66.18-36.91.95-13.59-3.24-25.81-7.49-38.22S501.65,13.67,497.25.3c7.3,0,13.86-.23,20.37.21,1.13.08,2.41,2.85,3,4.59C522.9,11.47,524.9,17.93,527.37,25.5Z"/><path class="cls-1" d="M537,202.34c0-18.14.12-36.28-.09-54.42,0-4.24,1.35-5.59,5.43-5.28a102.05,102.05,0,0,0,11.47,0c3.08-.13,4,1.18,4,4.14q-.1,55.66,0,111.33c0,3.31-1.15,4.42-4.36,4.25a111.15,111.15,0,0,0-12,0c-3.57.22-4.54-1.25-4.51-4.65C537.06,239.28,537,220.81,537,202.34Z"/><path class="cls-1" d="M439.87,66.34h-18.5c2.56-5.48,4.76-10.23,7-15,3.94-8.42,7.85-16.85,11.91-25.2.56-1.15,1.89-2.7,2.9-2.73,7.1-.24,14.2-.13,22.3-.13-5.19,9.65-9.94,18.5-15.23,28.33H467.8L428.91,105l-1.27-.53Z"/></g></g></svg>